<?xml version="1.0" ?><!DOCTYPE svg  PUBLIC '-//W3C//DTD SVG 1.1//EN'  'http://www.w3.org/Graphics/SVG/1.1/DTD/svg11.dtd'><svg enable-background="new 0 0 100 100" height="100px" id="Layer_1" version="1.1" viewBox="0 0 100 100" width="100px" xml:space="preserve" xmlns="http://www.w3.org/2000/svg" xmlns:xlink="http://www.w3.org/1999/xlink"><g><path d="M49.562,3.911c-25.354,0-45.979,20.625-45.979,45.978s20.626,45.978,45.979,45.978   c25.352,0,45.977-20.625,45.977-45.978S74.913,3.911,49.562,3.911z M49.562,93.866c-24.25,0-43.979-19.728-43.979-43.978   S25.312,5.911,49.562,5.911c24.249,0,43.977,19.728,43.977,43.978S73.811,93.866,49.562,93.866z" fill="#AAB4BE"/><path d="M36.516,47.971c-0.364-0.161-0.787-0.09-1.078,0.177L22.562,59.93c-0.309,0.283-0.409,0.727-0.251,1.115   c2.574,6.327,7.308,11.596,13.327,14.836c0.147,0.08,0.311,0.12,0.474,0.12c0.178,0,0.355-0.047,0.513-0.142   c0.303-0.18,0.487-0.506,0.487-0.858V48.886C37.112,48.49,36.878,48.131,36.516,47.971z M35.112,73.267   c-4.713-2.931-8.454-7.245-10.68-12.337l10.68-9.772V73.267z" fill="#448AFD"/><path d="M48.096,35.209c0.208-0.19,0.326-0.46,0.325-0.742c-0.001-0.282-0.121-0.55-0.331-0.739l-10.855-9.769   c-0.309-0.278-0.759-0.334-1.127-0.146c-9.845,5.074-15.961,15.096-15.961,26.154c0,2.65,0.36,5.297,1.072,7.868   c0.093,0.335,0.354,0.599,0.688,0.694c0.091,0.026,0.184,0.039,0.276,0.039c0.246,0,0.488-0.091,0.675-0.262L48.096,35.209z    M22.146,49.967c0-10.077,5.449-19.23,14.27-24.054l9.517,8.564L22.752,55.692C22.35,53.807,22.146,51.888,22.146,49.967z" fill="#9B479F"/><path d="M75.044,61.539H39.11c-0.553,0-1,0.448-1,1V76.39c0,0.41,0.251,0.779,0.632,0.93   c3.461,1.369,7.101,2.062,10.818,2.062c11.272,0,21.38-6.284,26.38-16.4c0.153-0.31,0.136-0.677-0.047-0.971   C75.711,61.718,75.39,61.539,75.044,61.539z M49.561,77.382c-3.239,0-6.415-0.565-9.45-1.681V63.539h33.271   C68.504,72.119,59.52,77.382,49.561,77.382z" fill="#0DAB62"/><path d="M64.708,24.752c-0.308-0.185-0.692-0.19-1.008-0.014c-0.313,0.177-0.508,0.51-0.508,0.871V59.54   c0,0.552,0.447,1,1,1h12.126c0.423,0,0.799-0.266,0.941-0.663c1.139-3.182,1.716-6.516,1.716-9.91   C78.976,39.556,73.642,30.13,64.708,24.752z M75.604,58.54H65.192V27.445c7.411,5.131,11.783,13.423,11.783,22.522   C76.976,52.896,76.515,55.776,75.604,58.54z" fill="#FFD34E"/><path d="M60.524,43.574c0.188,0.169,0.427,0.257,0.669,0.257c0.138,0,0.276-0.028,0.407-0.086   c0.36-0.161,0.593-0.519,0.593-0.914V24.045c0-0.394-0.23-0.75-0.59-0.912c-3.807-1.711-7.858-2.58-12.043-2.58   c-3.552,0-7.033,0.632-10.348,1.877c-0.327,0.123-0.566,0.407-0.631,0.75c-0.065,0.343,0.054,0.695,0.313,0.929L60.524,43.574z    M49.561,22.554c3.685,0,7.258,0.722,10.633,2.146v15.885L41.499,23.763C44.106,22.96,46.811,22.554,49.561,22.554z" fill="#E04A3F"/></g></svg>